<svg width="27" height="26" viewBox="0 0 27 26" fill="none" xmlns="http://www.w3.org/2000/svg">
<path d="M10.2621 1.625H16.7379C17.8295 1.625 18.7945 2.29633 19.1373 3.29164L19.6857 4.875H23.625C25.4865 4.875 27 6.33242 27 8.125V21.125C27 22.9176 25.4865 24.375 23.625 24.375H3.375C1.51084 24.375 0 22.9176 0 21.125V8.125C0 6.33242 1.51084 4.875 3.375 4.875H7.31426L7.8627 3.29164C8.20547 2.29633 9.17051 1.625 10.2621 1.625ZM13.5 19.5C16.2949 19.5 18.5625 17.3164 18.5625 14.625C18.5625 11.8879 16.2949 9.75 13.5 9.75C10.6576 9.75 8.4375 11.8879 8.4375 14.625C8.4375 17.3164 10.6576 19.5 13.5 19.5Z" fill="#20D2C6"/>
</svg>
