<svg id="Layer_1" data-name="Layer 1" xmlns="http://www.w3.org/2000/svg" viewBox="0 0 1252.59 216.95"><defs><style>.cls-1{fill:#eabe2d;}.cls-1,.cls-2,.cls-3,.cls-4,.cls-5,.cls-6,.cls-7,.cls-8{fill-rule:evenodd;}.cls-2{fill:#110f0f;}.cls-3{fill:#141211;}.cls-4{fill:#161412;}.cls-5{fill:#151412;}.cls-6{fill:#0e0d0d;}.cls-7{fill:#171513;}.cls-8{fill:#1c1917;}</style></defs><title>icon-amazfit</title><path class="cls-1" d="M233.16,141.42c.05,59.77-48.29,108.47-107.7,108.51-60,0-108.6-48.31-108.62-108C16.82,81.5,65,33,125.06,33,184.81,33,233.12,81.44,233.16,141.42Zm-2.29,0c0-.17,0-.34,0-.51-17.1-4.05-34.19-8.13-51.31-12.09a5.22,5.22,0,0,1-4.41-4,52.9,52.9,0,0,0-47.61-36.52C94.44,86.71,67.71,116,72.68,148.9c3.13,20.71,14.77,35.23,34.41,42.38,19.83,7.23,38,3.06,53.77-10.83a46.4,46.4,0,0,0,11.88-16.32l-46.48-22.08.23-.6Z" transform="translate(-16.84 -32.98)"/><path class="cls-2" d="M471.46,100.82c3.37,0,6.57-.16,9.75.09a5.43,5.43,0,0,1,3.16,1.87q20.34,22.86,40.56,45.8c.44.5.89,1,1.54,1.69,4.92-5.33,9.79-10.61,14.65-15.9,9.37-10.2,18.8-20.35,28.06-30.66,1.94-2.17,3.91-3.25,6.82-2.94a58.19,58.19,0,0,0,6.35,0v81.1h-13V122.1L526,168.7l-41.49-46.88v60.07H471.46Z" transform="translate(-16.84 -32.98)"/><path class="cls-3" d="M794,181.9l68.48-69.61H797.35V100.93h94.83l-68.55,69.76H888.8V181.9Z" transform="translate(-16.84 -32.98)"/><path class="cls-4" d="M629.13,182.09l59-79.66c1.71-2.3,3.94-2.38,5.59-.15q29.25,39.5,58.47,79c.05.07,0,.2.07.79-5,0-10.06.09-15.07-.09-.83,0-1.77-1.13-2.38-2-3-4-6-7.94-8.74-12.12-1.41-2.17-3-2.7-5.46-2.68-12.75.11-25.5,0-38.24.09a4.56,4.56,0,0,1-4.39-2.19c-1.74-2.67-3.7-5.19-5.89-8.2h44.23l-25.17-34.83c-.78,1-1.46,1.83-2.1,2.69q-20.76,28.42-41.47,56.89a5.17,5.17,0,0,1-4.92,2.45C638.38,182,634.1,182.09,629.13,182.09Z" transform="translate(-16.84 -32.98)"/><path class="cls-5" d="M388,154.81,362.78,120l-23.86,32.63c-6.66,9.11-13.26,18.28-20,27.3a6,6,0,0,1-4,2c-4.48.26-9,.1-14,.1,7.2-9.76,14.07-19.07,21-28.38L359.4,103c2.34-3.16,4.14-3.25,6.38-.23q28.89,38.94,57.73,77.91c.2.26.35.55.83,1.34-5.53,0-10.75.07-16-.08-.61,0-1.26-1.09-1.76-1.78-3.08-4.18-6.23-8.33-9.13-12.64a4.78,4.78,0,0,0-4.64-2.29c-13,.08-25.94.1-38.91-.05a6.12,6.12,0,0,1-4-2c-2.14-2.44-3.89-5.22-6.19-8.4Z" transform="translate(-16.84 -32.98)"/><path class="cls-6" d="M1039.83,101v10.4H967.38v22.53H1028c-2.61,3.62-4.75,6.81-7.18,9.77-.6.72-2.14.91-3.25.92q-23.11.07-46.24,0h-4V181.9h-13V101Z" transform="translate(-16.84 -32.98)"/><path class="cls-7" d="M1208.43,112.11h-41.88v-11a5.24,5.24,0,0,1,1.06-.23h101.82c-2.83,3.86-5.32,7.39-8,10.75-.45.56-1.84.48-2.79.48q-16.29,0-32.59,0h-3.59v69.71h-14Z" transform="translate(-16.84 -32.98)"/><path class="cls-8" d="M1109.87,181.94h-13.38V101h13.38Z" transform="translate(-16.84 -32.98)"/></svg>