<svg width="40" height="40" viewBox="0 0 40 40" fill="none" xmlns="http://www.w3.org/2000/svg">
<path d="M20 24.5C21.933 24.5 23.5 22.933 23.5 21C23.5 19.067 21.933 17.5 20 17.5C18.067 17.5 16.5 19.067 16.5 21C16.5 22.933 18.067 24.5 20 24.5Z" fill="#272263"/>
<path d="M17.3 12L15.653 13.8182H12.8C11.81 13.8182 11 14.6364 11 15.6364V26.5455C11 27.5455 11.81 28.3636 12.8 28.3636H27.2C28.19 28.3636 29 27.5455 29 26.5455V15.6364C29 14.6364 28.19 13.8182 27.2 13.8182H24.347L22.7 12H17.3ZM20 25.6364C17.516 25.6364 15.5 23.6 15.5 21.0909C15.5 18.5818 17.516 16.5455 20 16.5455C22.484 16.5455 24.5 18.5818 24.5 21.0909C24.5 23.6 22.484 25.6364 20 25.6364Z" fill="#272263"/>
</svg>
