<svg width="40" height="40" viewBox="0 0 40 40" fill="none" xmlns="http://www.w3.org/2000/svg">
<path d="M28.5171 19.2021C27.7217 15.6061 26.5246 13.6867 24.7489 13.1624C24.3756 13.0529 23.9884 12.9982 23.5994 13C23.0853 13 22.6375 13.1253 22.1639 13.2581C21.5931 13.4182 20.9447 13.6001 19.9992 13.6001C19.0538 13.6001 18.405 13.4186 17.8331 13.2584C17.3591 13.1253 16.9117 13 16.399 13C15.9968 12.9986 15.5963 13.0532 15.2091 13.1621C13.4427 13.6841 12.2464 15.6027 11.4394 19.1999C10.5716 23.0709 10.9987 25.5149 12.6372 26.0819C12.8618 26.1611 13.0981 26.2019 13.3362 26.2027C14.4587 26.2027 15.3587 25.2677 15.9737 24.5023C16.6687 23.636 17.4821 23.1965 19.9992 23.1965C22.2475 23.1965 23.1779 23.5014 23.9816 24.5023C24.4867 25.1316 24.9641 25.5719 25.4404 25.849C26.0738 26.2173 26.7069 26.2991 27.3215 26.0879C28.2898 25.7575 28.8449 24.8841 28.9716 23.4913C29.068 22.4232 28.9195 21.0203 28.5171 19.2021ZM18.1991 19.0004H16.9991V20.2005C16.9991 20.3596 16.9358 20.5122 16.8233 20.6247C16.7108 20.7373 16.5582 20.8005 16.399 20.8005C16.2399 20.8005 16.0873 20.7373 15.9747 20.6247C15.8622 20.5122 15.799 20.3596 15.799 20.2005V19.0004H14.5989C14.4398 19.0004 14.2872 18.9372 14.1746 18.8246C14.0621 18.7121 13.9989 18.5595 13.9989 18.4004C13.9989 18.2412 14.0621 18.0886 14.1746 17.9761C14.2872 17.8635 14.4398 17.8003 14.5989 17.8003H15.799V16.6002C15.799 16.4411 15.8622 16.2885 15.9747 16.176C16.0873 16.0634 16.2399 16.0002 16.399 16.0002C16.5582 16.0002 16.7108 16.0634 16.8233 16.176C16.9358 16.2885 16.9991 16.4411 16.9991 16.6002V17.8003H18.1991C18.3583 17.8003 18.5109 17.8635 18.6234 17.9761C18.7359 18.0886 18.7992 18.2412 18.7992 18.4004C18.7992 18.5595 18.7359 18.7121 18.6234 18.8246C18.5109 18.9372 18.3583 19.0004 18.1991 19.0004ZM21.3493 19.1504C21.201 19.1504 21.0559 19.1064 20.9326 19.024C20.8093 18.9416 20.7131 18.8244 20.6564 18.6874C20.5996 18.5503 20.5847 18.3995 20.6137 18.254C20.6426 18.1085 20.714 17.9749 20.8189 17.87C20.9238 17.7651 21.0575 17.6937 21.203 17.6647C21.3485 17.6358 21.4993 17.6506 21.6363 17.7074C21.7734 17.7642 21.8905 17.8603 21.9729 17.9837C22.0554 18.107 22.0993 18.252 22.0993 18.4004C22.0993 18.5993 22.0203 18.7901 21.8797 18.9307C21.739 19.0714 21.5482 19.1504 21.3493 19.1504V19.1504ZM22.9994 20.8005C22.851 20.8005 22.7059 20.7565 22.5825 20.674C22.4591 20.5915 22.363 20.4742 22.3063 20.337C22.2496 20.1999 22.2348 20.049 22.2639 19.9034C22.293 19.7579 22.3646 19.6242 22.4697 19.5194C22.5748 19.4146 22.7086 19.3433 22.8542 19.3146C22.9998 19.2859 23.1507 19.301 23.2877 19.358C23.4248 19.4151 23.5418 19.5115 23.624 19.6351C23.7061 19.7587 23.7498 19.9039 23.7494 20.0523C23.7489 20.2509 23.6697 20.4412 23.5291 20.5815C23.3885 20.7217 23.198 20.8005 22.9994 20.8005V20.8005ZM22.9994 17.5003C22.8511 17.5003 22.706 17.4563 22.5827 17.3739C22.4594 17.2915 22.3632 17.1743 22.3065 17.0373C22.2497 16.9002 22.2348 16.7494 22.2638 16.6039C22.2927 16.4584 22.3641 16.3248 22.469 16.2199C22.5739 16.115 22.7076 16.0436 22.8531 16.0146C22.9986 15.9857 23.1494 16.0005 23.2864 16.0573C23.4235 16.1141 23.5406 16.2102 23.623 16.3336C23.7055 16.4569 23.7494 16.6019 23.7494 16.7503C23.7494 16.9492 23.6704 17.14 23.5298 17.2806C23.3891 17.4213 23.1983 17.5003 22.9994 17.5003ZM24.6495 19.1504C24.5012 19.1504 24.3561 19.1064 24.2328 19.024C24.1094 18.9416 24.0133 18.8244 23.9565 18.6874C23.8998 18.5503 23.8849 18.3995 23.9139 18.254C23.9428 18.1085 24.0142 17.9749 24.1191 17.87C24.224 17.7651 24.3577 17.6937 24.5032 17.6647C24.6487 17.6358 24.7995 17.6506 24.9365 17.7074C25.0736 17.7642 25.1907 17.8603 25.2731 17.9837C25.3555 18.107 25.3995 18.252 25.3995 18.4004C25.3995 18.5993 25.3205 18.7901 25.1799 18.9307C25.0392 19.0714 24.8484 19.1504 24.6495 19.1504V19.1504Z" fill="#272263"/>
</svg>
