<svg width="40" height="40" viewBox="0 0 40 40" fill="none" xmlns="http://www.w3.org/2000/svg">
<path d="M26 25.25C26.825 25.25 27.4925 24.575 27.4925 23.75L27.5 15.5C27.5 14.675 26.825 14 26 14H14C13.175 14 12.5 14.675 12.5 15.5V23.75C12.5 24.575 13.175 25.25 14 25.25H11C11 26.075 11.675 26.75 12.5 26.75H27.5C28.325 26.75 29 26.075 29 25.25H26ZM14 15.5H26V23.75H14V15.5ZM20 26C19.5875 26 19.25 25.6625 19.25 25.25C19.25 24.8375 19.5875 24.5 20 24.5C20.4125 24.5 20.75 24.8375 20.75 25.25C20.75 25.6625 20.4125 26 20 26Z" fill="#272263"/>
</svg>
