<svg width="40" height="40" viewBox="0 0 40 40" fill="none" xmlns="http://www.w3.org/2000/svg">
<path d="M26.6316 8H13.3684C12.0611 8 11 9.08706 11 10.4265V28.8676C11 30.2071 12.0611 31.2941 13.3684 31.2941H26.6316C27.9389 31.2941 29 30.2071 29 28.8676V10.4265C29 9.08706 27.9389 8 26.6316 8ZM20 30.3235C19.2137 30.3235 18.5789 29.6732 18.5789 28.8676C18.5789 28.0621 19.2137 27.4118 20 27.4118C20.7863 27.4118 21.4211 28.0621 21.4211 28.8676C21.4211 29.6732 20.7863 30.3235 20 30.3235ZM27.1053 26.4412H12.8947V10.9118H27.1053V26.4412Z" fill="#272263"/>
</svg>
