<svg width="40" height="40" viewBox="0 0 40 40" fill="none" xmlns="http://www.w3.org/2000/svg">
<path d="M29 19.5C29 16.6425 27.6612 14.0888 25.58 12.4463L24.5 6H15.5L14.4313 12.4463C12.3388 14.0888 11 16.6313 11 19.5C11 22.3688 12.3388 24.9113 14.4313 26.5538L15.5 33H24.5L25.58 26.5538C27.6612 24.9113 29 22.3575 29 19.5ZM13.25 19.5C13.25 15.7763 16.2763 12.75 20 12.75C23.7237 12.75 26.75 15.7763 26.75 19.5C26.75 23.2238 23.7237 26.25 20 26.25C16.2763 26.25 13.25 23.2238 13.25 19.5Z" fill="#272263"/>
</svg>
