<svg width="40" height="40" viewBox="0 0 40 40" fill="none" xmlns="http://www.w3.org/2000/svg">
<path d="M26.6316 9H13.3684C12.0611 9 11 10.05 11 11.3438V29.1562C11 30.45 12.0611 31.5 13.3684 31.5H26.6316C27.9389 31.5 29 30.45 29 29.1562V11.3438C29 10.05 27.9389 9 26.6316 9ZM20 30.5625C19.2137 30.5625 18.5789 29.9344 18.5789 29.1562C18.5789 28.3781 19.2137 27.75 20 27.75C20.7863 27.75 21.4211 28.3781 21.4211 29.1562C21.4211 29.9344 20.7863 30.5625 20 30.5625ZM27.1053 26.8125H12.8947V11.8125H27.1053V26.8125Z" fill="#272263"/>
</svg>
