<svg width="290" height="311" viewBox="0 0 290 311" fill="none" xmlns="http://www.w3.org/2000/svg">
<path d="M85 263.5V47.5C85 39.2157 91.7157 32.5 100 32.5H117.5H169H190C198.284 32.5 205 39.2157 205 47.5V263.5C205 271.784 198.284 278.5 190 278.5H100C91.7157 278.5 85 271.784 85 263.5Z" fill="black"/>
<path d="M117.5 32.5H100C91.7157 32.5 85 39.2157 85 47.5V263.5C85 271.784 91.7157 278.5 100 278.5H190C198.284 278.5 205 271.784 205 263.5V47.5C205 39.2157 198.284 32.5 190 32.5H169M117.5 32.5V46C117.5 54.2843 124.216 61 132.5 61H154C162.284 61 169 54.2843 169 46V32.5M117.5 32.5H169" stroke="#007FFF" stroke-width="5"/>
</svg>
